<?xml version="1.0" encoding="UTF-8" standalone="no"?>
<svg
   width="128"
   height="128"
   viewBox="0 0 128 128"
   fill="#fab800"
   version="1.1"
   id="svg1"
   sodipodi:docname="Icone Somfy RTS Carre.svg"
   inkscape:version="1.4.2 (ebf0e940d0, 2025-05-08)"
   xmlns:inkscape="http://www.inkscape.org/namespaces/inkscape"
   xmlns:sodipodi="http://sodipodi.sourceforge.net/DTD/sodipodi-0.dtd"
   xmlns:xlink="http://www.w3.org/1999/xlink"
   xmlns="http://www.w3.org/2000/svg"
   xmlns:svg="http://www.w3.org/2000/svg">
  <defs
     id="defs1">
    <color-profile
       name="U28E590"
       xlink:href=".local/share/icc/edid-75361bee2c31fd21aed877e42f1f6585.icc"
       id="color-profile2" />
  </defs>
  <sodipodi:namedview
     id="namedview1"
     pagecolor="#ffffff"
     bordercolor="#000000"
     borderopacity="0.25"
     inkscape:showpageshadow="2"
     inkscape:pageopacity="0.0"
     inkscape:pagecheckerboard="true"
     inkscape:deskcolor="#ffffff"
     inkscape:zoom="7.4765625"
     inkscape:cx="64"
     inkscape:cy="64"
     inkscape:window-width="1545"
     inkscape:window-height="1211"
     inkscape:window-x="0"
     inkscape:window-y="0"
     inkscape:window-maximized="0"
     inkscape:current-layer="svg1" />
  <rect
     style="fill:#f7f5d2;fill-opacity:1;stroke:#7a4a65;stroke-width:1.07547;stroke-opacity:1"
     id="rect1"
     width="126"
     height="126"
     x="1"
     y="1"
     ry="33.786575" />
  <g
     id="g1"
     transform="translate(0,-14.072903)">
    <path
       fill-rule="evenodd"
       clip-rule="evenodd"
       d="m 98.41822,47.232253 v -0.0062 c 0.0018,-0.239102 -0.03475,-1.069085 -0.612669,-1.660781 -0.403156,-0.412993 -0.975421,-0.623024 -1.705115,-0.623024 h -2.252472 c -1.531991,0 -1.531991,-0.351658 -1.531991,-1.294142 0,-0.01986 0.04953,-1.927314 1.554976,-2.473124 0.479226,-0.174285 1.011447,-0.261656 1.581155,-0.262536 h 0.02517 2.653534 0.03995 c 0.939662,0 1.785197,-0.637583 2.053352,-1.55138 0.0593,-0.202531 0.0912,-0.411681 0.0912,-0.624352 0,-1.199281 -0.963185,-2.173968 -2.144562,-2.173968 -0.04515,0 -0.09003,8.82e-4 -0.145209,0.0053 l 0.0082,-0.0013 H 95.759828 95.57631 c -0.357002,0.0035 -0.740912,0.02736 -1.143156,0.07016 -1.206274,0.128399 -2.293882,0.409025 -3.235734,0.832611 -3.973728,1.788331 -4.153324,5.432049 -4.155969,5.469116 l -0.0099,0.05735 c -0.191818,1.262824 -0.519268,1.947182 -1.698544,1.947182 -0.584849,0 -1.055866,0.190172 -1.399825,0.566099 -0.609659,0.664508 -0.588772,1.681152 -0.587495,1.690779 v -0.0096 c 0,2.06446 1.934235,2.452818 1.959501,2.456302 0.909289,0.07903 1.594562,0.827324 1.595839,1.735418 v -9.17e-4 c 0,0.04859 -0.01259,4.708889 -0.01259,7.154189 0,0.865738 0.228759,1.536838 0.680166,1.991298 0.588771,0.595281 1.337619,0.597848 1.370181,0.597848 h 1.0358 c 0.06266,0 0.625347,-0.0093 1.159757,-0.379832 0.436174,-0.303187 0.956263,-0.927989 0.956263,-2.187219 v -7.226983 c 0.02828,-0.946967 0.796186,-1.687286 1.748527,-1.687286 h -0.0052 0.003 0.0044 0.01085 l 0.01085,-0.0022 -0.02171,0.0022 -0.01086,-0.0014 c 0.0078,0.0014 0.02171,0.0022 2.220366,0.0014 0.718748,0 1.29147,-0.213615 1.701558,-0.633237 0.6414,-0.656065 0.666666,-1.608257 0.665754,-1.793177 0,-0.0022 0,4.59e-4 -9.13e-4,0.0049 m 19.007864,10.018247 h -0.0821 v 0.630853 h 0.0721 c 0.24445,0 0.44694,-0.09883 0.44694,-0.343435 0,-0.225442 -0.15597,-0.287418 -0.43691,-0.287418 z m 0.56916,1.976996 c -0.32562,-0.577586 -0.50713,-0.939174 -0.59743,-0.939174 h -0.0547 v 0.939174 h -0.52903 v -2.38314 h 0.79354 c 0.5263,0 0.80814,0.279259 0.80814,0.650014 0,0.387166 -0.32836,0.577953 -0.53815,0.650839 v 0.0065 c 0.11766,0 0.44694,0.553291 0.72878,1.075777 z m -0.38947,-2.99694 c -1.01154,0 -1.73941,0.802203 -1.73941,1.834708 0,1.034155 0.72787,1.836358 1.73941,1.836358 1.0088,0 1.73667,-0.802203 1.73667,-1.836358 0,-1.032505 -0.72787,-1.834708 -1.73667,-1.834708 z m 0,4.222249 c -1.40557,0 -2.35691,-1.02077 -2.35691,-2.387541 0,-1.364663 0.96046,-2.388366 2.36603,-2.388366 1.36453,0 2.3861,1.023703 2.3861,2.388366 0,1.366771 -1.04164,2.387541 -2.39522,2.387541 z M 12.233856,53.320749 c 0.02705,0.0093 0.969543,0.395967 1.967883,0.803395 l 3.054779,1.249971 c 0.721302,0.290077 1.099101,1.062301 0.897158,1.833699 -0.253568,0.97658 -1.412504,1.900443 -3.902638,1.565535 -0.991352,-0.132753 -3.297821,-0.628102 -3.320515,-0.632045 l 0.01832,0.0039 c -0.06021,-0.02155 -1.4460156,-0.516895 -2.3007963,-0.05932 -0.3071827,0.164842 -0.5074626,0.428973 -0.5973471,0.788452 -0.3233253,1.30452 1.0048808,1.762005 1.0184075,1.765948 0.4751673,0.168783 0.9992149,0.288793 1.4202759,0.384599 l 0.357796,0.08352 c 0.03011,0.0066 3.052171,0.733076 5.448092,0.697046 1.575189,-0.0242 5.40316,-0.377998 6.901495,-3.145096 0.21909,-0.404403 0.527568,-1.834158 0.373967,-2.727676 -0.181511,-1.053499 -0.494823,-2.095997 -2.290325,-3.266389 -0.456423,-0.297594 -1.87668,-0.76874 -3.128925,-1.185794 -0.666301,-0.2215 -1.29548,-0.431173 -1.625392,-0.56521 -2.204367,-0.897551 -2.600564,-1.706172 -2.638088,-2.109291 -0.02443,-0.243411 0.05062,-0.780567 0.475176,-1.252996 0.526656,-0.585471 1.405873,-0.88169 2.614957,-0.88169 1.814747,0 2.521638,0.212331 3.269482,0.436857 0.140466,0.04401 0.2875,0.08746 0.439823,0.128352 0.566789,0.15604 1.015368,0.134037 1.335157,-0.06592 0.379623,-0.235985 0.459889,-0.648272 0.487891,-0.783592 0.04752,-0.247446 0.105076,-1.094417 -1.213024,-1.624907 -0.112191,-0.04483 -2.816161,-1.108453 -7.069553,-0.514676 -0.599525,0.08395 -1.771522,0.315574 -2.874143,0.931767 -1.6096496,0.898394 -2.4417375,2.286344 -2.4125042,4.014061 0.021818,1.240253 0.6012676,2.347018 1.6742182,3.204047 0.804606,0.641671 1.590449,0.914145 1.625356,0.923405 m 26.643057,3.78145 c -2.472292,0 -4.483053,-2.021553 -4.483053,-4.506459 0,-2.485455 2.010761,-4.50655 4.483053,-4.50655 2.472749,0 4.483145,2.021095 4.483145,4.50655 0,2.484906 -2.010396,4.506459 -4.483145,4.506459 z m -9.1e-5,-17.128127 c -6.935006,0 -12.556655,5.650446 -12.556655,12.621852 0,6.970919 5.621649,12.622282 12.556655,12.622282 6.935918,0 12.558388,-5.651363 12.558388,-12.622282 0,-6.971406 -5.62247,-12.621852 -12.558388,-12.621852 z m 16.632449,6.810598 v 12.250977 c 0,0.0013 -0.0014,0.0022 -0.0014,0.0039 v 0.01146 9.17e-4 c 0,1.106949 0.863592,2.010001 1.950105,2.068585 0.03731,0.0027 0.07361,0.0039 0.112191,0.0039 0.03685,0 0.07361,-0.0013 0.110457,-0.0039 1.079034,-0.05813 1.938248,-0.951001 1.94965,-2.048324 v -0.02026 -0.02246 -5.275107 c 0,-3.080003 0.598439,-6.837157 4.257761,-6.837157 1.891821,0 1.776985,2.409635 1.776985,3.070376 v 9.127793 h 0.0031 c 0.03284,1.11575 0.941943,2.009084 2.058738,2.009084 1.13741,0 2.060563,-0.928081 2.060563,-2.072527 0,-0.0419 -9.12e-4,-0.0837 -0.0035,-0.124227 v -5.045998 c 0,0 -0.564326,-7.061774 4.294519,-6.960926 1.761298,0.03612 1.74415,2.058958 1.74415,3.06946 v 9.021168 h 9.12e-4 c 0,0.01366 -9.12e-4,0.0264 -9.12e-4,0.04052 0,1.144446 0.922697,2.072527 2.061475,2.072527 1.137318,0 2.060016,-0.928081 2.060016,-2.072527 0,-0.04758 -0.0017,-0.09388 -0.0057,-0.140546 V 47.999618 c 0,-2.217932 -1.937428,-3.246549 -3.69079,-3.246549 -3.305693,0 -3.646186,1.122406 -5.527883,1.122406 -1.772699,0 -1.935238,-1.125487 -4.813787,-1.125487 -2.513064,0 -3.016462,1.125946 -4.868059,1.125946 -1.451451,0 -2.239246,-1.121545 -3.467776,-1.121545 -2.167007,0 -2.060928,2.030281 -2.060928,2.030281 z m 55.271096,4.574027 c -0.46062,0.924046 -1.0161,1.454509 -1.52415,1.454509 -0.59196,0 -0.96867,-0.07215 -1.82059,-1.530971 l -3.09663,-5.463877 c -0.22894,-0.441927 -0.68135,-0.739136 -1.287,-0.933966 -0.60838,-0.196132 -1.23592,-0.176687 -1.67738,0.05227 -0.26087,0.133917 -0.43873,0.333936 -0.51444,0.575413 -0.0693,0.215999 -0.052,0.451875 0.0483,0.686852 l 9.1e-4,0.0017 c 0.0237,0.054 5.51192,10.942423 5.83663,11.635802 0.15415,0.328307 0.23351,0.68687 0.23351,1.067435 0,1.992765 -1.10184,2.848968 -1.63908,3.292243 -1.34993,1.117951 -3.26173,1.042773 -3.28088,1.042315 l -0.003,-8.26e-4 h -0.003 -1.04347 c -0.65307,0 -1.381849,0.544307 -1.381849,1.32359 0,0.832458 0.554559,1.329733 1.483099,1.329733 h 0.95042 l -0.0109,-9.17e-4 c 0.052,0.0044 1.26875,0.101949 2.82847,-0.401743 1.44024,-0.465645 3.44416,-1.555175 4.82236,-4.105632 0.32928,-0.606558 3.17508,-7.04023 5.25197,-11.73775 l 1.55425,-3.507784 c 0.008,-0.02246 0.14047,-0.513603 0.0684,-0.686402 -0.0894,-0.21599 -0.23533,-0.406071 -0.4743,-0.53005 -0.40316,-0.209518 -0.9632,-0.181876 -1.53236,-0.04796 -0.51717,0.122255 -1.05532,0.66614 -1.21767,0.950863 z"
       id="path1"
       style="stroke-width:0.914457"
       sodipodi:nodetypes="cccsssccccscssccccccccsccccccscsscscccccccccccsccccsssccsccccssccccssssssssssccccccccccccccccccccsccccccccccsssssssssscsscscsccccsssccsscccsccssscsssssscccsccccccccsccccsssccccccccccc" />
    <g
       id="g34"
       transform="matrix(0.74799973,0,0,0.75184363,37.823688,67.70585)">
      <polyline
         points="64.02,59.47 5.15,59.47 5.15,0.6 64.02,0.6 64.02,59.47  "
         id="polyline1"
         style="fill:#ffd45b;fill-opacity:1" />
      <g
         id="g13">
        <polygon
           class="st0"
           points="40.51,28.5 41.7,29.69 39.32,27.31 "
           id="polygon1"
           style="fill:#7a4a65" />
        <polygon
           class="st0"
           points=""
           id="polygon2"
           style="fill:#7a4a65" />
        <path
           class="st0"
           d="m 30.88,31.89 c 1.2,0.49 2.48,0.73 3.76,0.73 1.28,0 2.55,-0.24 3.76,-0.73 1.2,-0.49 2.33,-1.22 3.31,-2.19 l -2.38,-2.38 c -0.65,0.65 -1.39,1.13 -2.19,1.45 -0.8,0.32 -1.64,0.48 -2.49,0.48 -0.85,0 -1.7,-0.16 -2.49,-0.48 -0.8,-0.32 -1.54,-0.81 -2.19,-1.45 v 0 0 c 0,0 0,0 0,0 l -2.38,2.38 c 0,0 0,0 0,0 0.96,0.97 2.09,1.7 3.29,2.19 z"
           id="path2"
           style="fill:#7a4a65" />
        <polygon
           class="st0"
           points="40.51,28.5 39.32,27.31 41.7,29.69 "
           id="polygon3"
           style="fill:#7a4a65" />
        <polygon
           class="st0"
           points=""
           id="polygon4"
           style="fill:#7a4a65" />
        <polygon
           class="st0"
           points="45.63,33.62 44.68,32.67 46.58,34.57 "
           id="polygon5"
           style="fill:#7a4a65" />
        <path
           class="st0"
           d="m 34.64,39.52 c 4.32,0 8.65,-1.65 11.94,-4.95 l -1.91,-1.91 c -2.78,2.77 -6.4,4.16 -10.04,4.16 -3.64,0 -7.26,-1.38 -10.04,-4.16 0,0 0,0 0,0 l -1.91,1.91 c 0,0 0,0 0,0 3.32,3.3 7.65,4.95 11.96,4.95 z"
           id="path5"
           style="fill:#7a4a65" />
        <path
           class="st0"
           d="m 12.62,44.65 c 2.97,2.97 6.44,5.27 10.31,6.84 v 0 c 0,0 0,0 0,0 v 0 0 c 3.73,1.51 7.67,2.28 11.71,2.28 4.03,0 7.98,-0.77 11.71,-2.28 3.87,-1.57 7.34,-3.87 10.3,-6.84 0,0 0,0 0,0 l -0.79,-0.79 c 0,0 0,0 0,0 -2.86,2.86 -6.2,5.08 -9.93,6.59 -3.6,1.46 -7.4,2.2 -11.29,2.2 -3.9,0 -7.69,-0.74 -11.29,-2.2 v 0 c -3.73,-1.51 -7.07,-3.73 -9.93,-6.59 v 0 0 c 0,0 0,0 0,0 v 0 c 0,0 0,0 0,0 z"
           id="path6"
           style="fill:#7a4a65" />
        <polygon
           class="st0"
           points="45.93,-5.19 46.14,-5.71 "
           id="polygon6"
           style="fill:#7a4a65" />
        <polygon
           class="st0"
           points="6.82,11.34 6.83,11.34 "
           id="polygon7"
           style="fill:#7a4a65" />
        <polygon
           class="st0"
           points=""
           id="polygon8"
           style="fill:#7a4a65" />
        <polygon
           class="st0"
           points=""
           id="polygon9"
           style="fill:#7a4a65" />
        <polygon
           class="st0"
           points=""
           id="polygon10"
           style="fill:#7a4a65" />
        <polygon
           class="st0"
           points=""
           id="polygon11"
           style="fill:#7a4a65" />
        <path
           class="st0"
           d="m 34.64,46.75 c 6.17,0 12.35,-2.36 17.06,-7.06 l -1.35,-1.35 c -4.34,4.34 -10.02,6.5 -15.71,6.51 -5.69,0 -11.37,-2.17 -15.71,-6.51 0,0 0,0 0,0 l -1.35,1.35 c 0,0 0,0 0,0 4.71,4.7 10.89,7.06 17.06,7.06 z"
           id="path11"
           style="fill:#7a4a65" />
        <polygon
           class="st0"
           points="51.02,39.01 50.35,38.34 51.7,39.69 "
           id="polygon12"
           style="fill:#7a4a65" />
        <polygon
           class="st0"
           points="51.7,39.69 50.35,38.34 "
           id="polygon13"
           style="fill:#7a4a65" />
      </g>
      <path
         class="st1"
         d="M 21.35,22.75 20.79,20.49 C 20.38,18.86 20.04,17.94 19.4,17.36 l -1.97,0.12 v 5.28 h -2.9 V 9.21 h 3.91 c 2.81,0 5.96,0.25 5.96,3.91 0,2.15 -1.04,3.13 -2.51,3.66 1.04,0.66 1.45,1.95 1.76,2.94 l 0.95,3.04 H 21.35 M 18.29,11.41 h -0.87 v 4.06 c 1.88,-0.12 4.06,0.1 4.06,-2.19 0,-1.72 -1.06,-1.87 -3.19,-1.87 z"
         id="path13"
         style="fill:#ffffff" />
      <polyline
         class="st1"
         points="40.93,11.62 37.45,11.62 37.45,22.75 34.55,22.75 34.55,11.62 30.77,11.62 30.77,9.21 41.22,9.21    40.93,11.62  "
         id="polyline13"
         style="fill:#ffffff" />
      <path
         class="st1"
         d="m 51.01,22.94 c -2.15,0 -3.85,-0.71 -3.85,-0.71 v -2.38 c 0,0 2.57,0.78 3.77,0.78 1.08,0 2.09,-0.27 2.09,-1.47 0,-1.22 -0.91,-1.45 -1.72,-1.76 l -1.03,-0.38 c -0.95,-0.37 -3.25,-1.01 -3.25,-4.07 0,-3.21 2.84,-3.93 4.99,-3.93 2.17,0 3.39,0.74 3.39,0.74 v 2.28 c 0,0 -1.84,-0.75 -3.31,-0.75 -1.32,0 -2.21,0.33 -2.21,1.51 0,1.16 0.89,1.34 1.65,1.65 l 0.93,0.37 c 1.28,0.51 3.46,1.12 3.46,4.18 0,3.44 -2.57,3.94 -4.91,3.94"
         id="path14"
         style="fill:#ffffff" />
      <path
         d="M 6.69,67.92 6.44,67.06 C 6.34,66.73 6.2,66.47 6.06,66.34 l -0.39,0.03 v 1.54 H 5.05 v -3.78 h 0.91 c 0.77,0 1.38,0.16 1.38,1.08 0,0.59 -0.3,0.87 -0.72,1.01 0.18,0.12 0.3,0.35 0.39,0.61 l 0.38,1.08 H 6.69 M 5.9,64.65 H 5.67 v 1.27 c 0.71,-0.04 1.06,-0.15 1.06,-0.7 0,-0.5 -0.27,-0.57 -0.83,-0.57 z"
         id="path15" />
      <path
         d="m 9.45,67.92 -0.07,-0.3 c 0,0 -0.26,0.35 -0.76,0.35 -0.35,0 -0.83,-0.14 -0.83,-0.91 0,-0.78 0.63,-0.92 1.09,-0.92 h 0.48 v -0.27 c 0,-0.34 -0.18,-0.37 -0.47,-0.37 -0.33,0 -0.78,0.13 -0.84,0.15 v -0.5 c 0,0 0.45,-0.16 0.94,-0.16 0.54,0 0.99,0.14 0.99,0.93 v 1.99 H 9.45 M 9.36,66.5 9.08,66.51 c -0.44,0.01 -0.66,0.11 -0.66,0.53 0,0.39 0.18,0.46 0.4,0.46 0.3,0 0.55,-0.22 0.55,-0.22 V 66.5 Z"
         id="path16" />
      <path
         d="M 12.57,67.92 12.5,67.65 c -0.05,0.06 -0.32,0.33 -0.77,0.33 -0.43,0 -1.07,-0.19 -1.07,-1.49 0,-1.32 0.82,-1.48 1.18,-1.48 0.37,0 0.57,0.21 0.61,0.25 v -1.22 h 0.62 v 3.89 h -0.5 m -0.13,-2.26 c -0.04,-0.03 -0.25,-0.18 -0.5,-0.18 -0.32,0 -0.66,0.1 -0.66,1 0,0.94 0.31,1.01 0.61,1.01 0.27,0 0.51,-0.19 0.56,-0.23 v -1.6 z"
         id="path17" />
      <path
         d="m 14.2,64.65 c -0.21,0 -0.38,-0.17 -0.38,-0.39 0,-0.21 0.16,-0.39 0.38,-0.39 0.22,0 0.38,0.17 0.38,0.39 0,0.22 -0.16,0.39 -0.38,0.39 m 0.31,3.27 h -0.62 v -2.86 h 0.62 z m -0.62,0"
         id="path18" />
      <path
         d="m 16.42,67.98 c -0.55,0 -1.24,-0.19 -1.24,-1.49 0,-1.27 0.69,-1.48 1.24,-1.48 0.55,0 1.24,0.18 1.24,1.48 0,1.32 -0.7,1.49 -1.24,1.49 m 0,-2.53 c -0.3,0 -0.62,0.09 -0.62,1.04 0,0.94 0.38,1.03 0.62,1.03 0.24,0 0.62,-0.1 0.62,-1.03 0,-0.97 -0.32,-1.04 -0.62,-1.04 z"
         id="path19" />
      <polyline
         points="21.9,64.69 21.05,64.69 21.05,67.92 20.43,67.92 20.43,64.69 19.52,64.69 19.52,64.14 21.97,64.14 21.9,64.69     "
         id="polyline19" />
      <path
         d="m 24.11,66.69 h -1.62 c 0.01,0.72 0.4,0.78 0.66,0.78 0.33,0 0.8,-0.15 0.8,-0.15 v 0.51 c 0,0 -0.39,0.14 -0.8,0.14 -0.58,0 -1.27,-0.16 -1.27,-1.49 0,-1.19 0.61,-1.48 1.16,-1.48 0.5,0 1.11,0.24 1.08,1.48 l -0.01,0.21 m -1.07,-1.25 c -0.36,0 -0.54,0.24 -0.54,0.85 h 1.02 c -0.01,-0.63 -0.16,-0.85 -0.48,-0.85 z"
         id="path20" />
      <path
         d="m 25.9,67.98 c -0.5,0 -1.23,-0.12 -1.23,-1.47 0,-1.36 0.83,-1.5 1.29,-1.5 0.33,0 0.58,0.11 0.58,0.11 v 0.49 c 0,0 -0.34,-0.11 -0.56,-0.11 -0.33,0 -0.69,0.09 -0.69,1 0,0.84 0.31,0.96 0.64,0.96 0.25,0 0.6,-0.12 0.6,-0.12 v 0.52 c 0,0 -0.31,0.12 -0.63,0.12"
         id="path21" />
      <path
         d="m 28.82,67.92 v -2.05 c 0,-0.29 -0.14,-0.34 -0.4,-0.34 -0.32,0 -0.72,0.26 -0.72,0.26 v 2.13 h -0.62 v -3.89 h 0.62 v 1.35 c 0,0 0.43,-0.38 0.92,-0.38 0.47,0 0.81,0.2 0.81,0.85 v 2.06 h -0.61"
         id="path22" />
      <path
         d="m 31.98,67.92 v -2.05 c 0,-0.3 -0.17,-0.34 -0.39,-0.34 -0.36,0 -0.72,0.25 -0.72,0.25 v 2.14 h -0.62 v -2.86 h 0.49 l 0.11,0.33 c 0,0 0.43,-0.38 0.94,-0.38 0.48,0 0.8,0.2 0.8,0.85 v 2.06 h -0.61"
         id="path23" />
      <path
         d="m 34.49,67.98 c -0.54,0 -1.24,-0.19 -1.24,-1.49 0,-1.27 0.69,-1.48 1.24,-1.48 0.55,0 1.24,0.18 1.24,1.48 0,1.32 -0.7,1.49 -1.24,1.49 m 0,-2.53 c -0.3,0 -0.62,0.09 -0.62,1.04 0,0.94 0.38,1.03 0.62,1.03 0.24,0 0.62,-0.1 0.62,-1.03 0,-0.97 -0.32,-1.04 -0.62,-1.04 z"
         id="path24" />
      <rect
         x="36.400002"
         y="64.029999"
         width="0.61000001"
         height="3.8900001"
         id="rect24" />
      <path
         d="m 38.92,67.98 c -0.54,0 -1.24,-0.19 -1.24,-1.49 0,-1.27 0.69,-1.48 1.24,-1.48 0.55,0 1.24,0.18 1.24,1.48 0,1.32 -0.7,1.49 -1.24,1.49 m 0,-2.53 c -0.3,0 -0.62,0.09 -0.62,1.04 0,0.94 0.38,1.03 0.62,1.03 0.25,0 0.62,-0.1 0.62,-1.03 0,-0.97 -0.32,-1.04 -0.62,-1.04 z"
         id="path25" />
      <path
         d="m 42.7,65.5 c 0.08,0.08 0.19,0.23 0.19,0.47 0,0.7 -0.45,0.98 -1.07,0.98 -0.16,0 -0.32,-0.03 -0.44,-0.07 -0.09,0.08 -0.15,0.16 -0.15,0.24 0,0.14 0.09,0.16 0.3,0.17 l 0.74,0.04 c 0.53,0.03 0.86,0.17 0.86,0.74 0,0.72 -0.52,0.92 -1.37,0.92 -0.69,0 -1.11,-0.22 -1.11,-0.75 0,-0.27 0.18,-0.48 0.32,-0.57 -0.14,-0.09 -0.21,-0.23 -0.21,-0.41 0,-0.24 0.17,-0.41 0.34,-0.53 -0.21,-0.16 -0.35,-0.39 -0.35,-0.76 0,-0.7 0.45,-0.98 1.08,-0.98 0.24,0 0.31,0.05 0.5,0.05 h 0.87 v 0.44 h -0.5 m -0.59,2.35 -0.68,-0.04 c -0.04,0 -0.11,-0.01 -0.11,-0.01 -0.06,0.1 -0.12,0.21 -0.12,0.35 0,0.29 0.18,0.45 0.56,0.45 0.57,0 0.81,-0.14 0.81,-0.46 0,-0.23 -0.11,-0.27 -0.46,-0.29 z M 41.82,65.4 c -0.34,0 -0.5,0.19 -0.5,0.57 0,0.38 0.16,0.58 0.5,0.58 0.34,0 0.5,-0.21 0.5,-0.58 0,-0.37 -0.18,-0.57 -0.5,-0.57 z"
         id="path26" />
      <path
         d="m 45.05,68.3 c -0.18,0.59 -0.52,0.7 -0.86,0.7 -0.26,0 -0.56,-0.09 -0.56,-0.09 v -0.48 c 0,0 0.35,0.08 0.51,0.08 0.2,0 0.32,-0.14 0.4,-0.48 l 0.04,-0.16 -1.09,-2.81 h 0.71 l 0.64,2.16 0.51,-2.16 h 0.67 l -0.97,3.24"
         id="path27" />
      <path
         d="m 48.68,67.97 c -0.42,0 -0.79,-0.13 -0.79,-0.13 V 67.3 c 0,0 0.47,0.15 0.74,0.15 0.33,0 0.62,-0.1 0.62,-0.54 0,-0.33 -0.19,-0.47 -0.44,-0.63 l -0.37,-0.23 c -0.31,-0.19 -0.6,-0.47 -0.6,-0.96 0,-0.8 0.64,-1.01 1.14,-1.01 0.41,0 0.73,0.13 0.73,0.13 v 0.52 c 0,0 -0.37,-0.15 -0.71,-0.15 -0.33,0 -0.56,0.11 -0.56,0.47 0,0.27 0.18,0.41 0.42,0.56 l 0.31,0.19 c 0.34,0.21 0.69,0.48 0.69,1.08 0.01,0.92 -0.61,1.09 -1.18,1.09"
         id="path28" />
      <path
         d="m 51.6,67.97 c -0.55,0 -1.24,-0.19 -1.24,-1.48 0,-1.27 0.69,-1.48 1.24,-1.48 0.55,0 1.24,0.18 1.24,1.48 -0.01,1.32 -0.71,1.48 -1.24,1.48 m 0,-2.52 c -0.3,0 -0.62,0.09 -0.62,1.04 0,0.94 0.38,1.03 0.62,1.03 0.24,0 0.62,-0.1 0.62,-1.03 0,-0.97 -0.33,-1.04 -0.62,-1.04 z"
         id="path29" />
      <path
         d="m 56.65,67.92 v -2.06 c 0,-0.28 -0.13,-0.33 -0.33,-0.33 -0.28,0 -0.61,0.23 -0.61,0.23 v 2.16 h -0.62 v -2.06 c 0,-0.28 -0.13,-0.33 -0.33,-0.33 -0.31,0 -0.61,0.23 -0.61,0.23 v 2.16 h -0.62 v -2.86 h 0.49 l 0.11,0.31 c 0,0 0.37,-0.37 0.83,-0.37 0.35,0 0.61,0.13 0.69,0.41 0.11,-0.1 0.45,-0.41 0.88,-0.41 0.45,0 0.75,0.2 0.75,0.85 v 2.06 h -0.63"
         id="path30" />
      <path
         d="m 59.21,64.47 c -0.23,0 -0.34,0.11 -0.34,0.36 v 0.23 h 0.65 l -0.06,0.44 h -0.58 v 2.43 H 58.26 V 65.5 h -0.49 v -0.44 h 0.49 v -0.23 c 0,-0.65 0.4,-0.85 0.89,-0.85 0.35,0 0.62,0.12 0.62,0.12 v 0.47 c -0.01,0 -0.31,-0.1 -0.56,-0.1"
         id="path31" />
      <path
         d="m 61.24,68.3 c -0.18,0.59 -0.52,0.7 -0.86,0.7 -0.26,0 -0.56,-0.09 -0.56,-0.09 v -0.48 c 0,0 0.35,0.08 0.51,0.08 0.2,0 0.32,-0.14 0.4,-0.48 l 0.04,-0.16 -1.09,-2.81 h 0.71 l 0.64,2.16 0.51,-2.16 h 0.68 l -0.98,3.24"
         id="path32" />
      <g
         id="g33">
        <path
           d="m 63.86,65.48 c -0.66,0 -1.08,-0.44 -1.08,-1.22 0,-0.76 0.45,-1.22 1.08,-1.22 0.65,0 1.08,0.46 1.08,1.22 0.01,0.76 -0.44,1.22 -1.08,1.22 z m 0,-2.22 c -0.56,0 -0.84,0.38 -0.84,1 0,0.62 0.29,1 0.84,1 0.56,0 0.84,-0.39 0.84,-1 0.01,-0.62 -0.28,-1 -0.84,-1 z m 0.2,1.61 L 64,64.66 c -0.03,-0.12 -0.08,-0.25 -0.15,-0.31 l -0.13,0.01 v 0.51 H 63.48 V 63.6 h 0.31 c 0.26,0 0.52,0.05 0.52,0.38 0,0.17 -0.1,0.27 -0.25,0.33 0.09,0.08 0.14,0.19 0.18,0.3 l 0.1,0.26 z m -0.27,-1.1 h -0.08 v 0.43 c 0.28,-0.01 0.34,-0.08 0.34,-0.23 0.01,-0.17 -0.05,-0.2 -0.26,-0.2 z"
           id="path33" />
      </g>
    </g>
  </g>
  <text
     xml:space="preserve"
     style="text-align:start;writing-mode:lr-tb;direction:ltr;text-anchor:start;fill:#fab800;fill-opacity:1;stroke:none;stroke-width:1.002;stroke-dasharray:none;stroke-opacity:1"
     x="52.134251"
     y="122.28055"
     id="text1"><tspan
       sodipodi:role="line"
       id="tspan1"
       x="52.134251"
       y="122.28055" /></text>
</svg>
