<?xml version="1.0" encoding="UTF-8" standalone="no"?>
<svg
   width="128"
   height="128"
   viewBox="0 0 128 128"
   fill="#fab800"
   version="1.1"
   id="svg1"
   sodipodi:docname="Icone Somfy RTS Plein - LAN.svg"
   inkscape:version="1.4.2 (ebf0e940d0, 2025-05-08)"
   xmlns:inkscape="http://www.inkscape.org/namespaces/inkscape"
   xmlns:sodipodi="http://sodipodi.sourceforge.net/DTD/sodipodi-0.dtd"
   xmlns:xlink="http://www.w3.org/1999/xlink"
   xmlns="http://www.w3.org/2000/svg"
   xmlns:svg="http://www.w3.org/2000/svg">
  <defs
     id="defs1">
    <color-profile
       name="U28E590"
       xlink:href=".local/share/icc/edid-75361bee2c31fd21aed877e42f1f6585.icc"
       id="color-profile2" />
  </defs>
  <sodipodi:namedview
     id="namedview1"
     pagecolor="#ffffff"
     bordercolor="#000000"
     borderopacity="0.25"
     inkscape:showpageshadow="2"
     inkscape:pageopacity="0.0"
     inkscape:pagecheckerboard="true"
     inkscape:deskcolor="#ffffff"
     inkscape:zoom="4.331029"
     inkscape:cx="61.301829"
     inkscape:cy="86.930843"
     inkscape:window-width="2017"
     inkscape:window-height="1339"
     inkscape:window-x="0"
     inkscape:window-y="0"
     inkscape:window-maximized="0"
     inkscape:current-layer="svg1" />
  <rect
     style="fill:#f7f5d2;fill-opacity:1;stroke:none;stroke-width:1.09257;stroke-opacity:1"
     id="rect1"
     width="128"
     height="128"
     x="0"
     y="0"
     ry="0" />
  <polygon
     class="st0"
     points=""
     id="polygon2"
     style="fill:#7a4a65"
     transform="matrix(0.74799973,0,0,0.75184363,135.58665,43.640946)" />
  <polygon
     class="st0"
     points=""
     id="polygon4"
     style="fill:#7a4a65"
     transform="matrix(0.74799973,0,0,0.75184363,135.58665,43.640946)" />
  <polygon
     class="st0"
     points=""
     id="polygon8"
     style="fill:#7a4a65"
     transform="matrix(0.74799973,0,0,0.75184363,135.58665,43.640946)" />
  <polygon
     class="st0"
     points=""
     id="polygon9"
     style="fill:#7a4a65"
     transform="matrix(0.74799973,0,0,0.75184363,135.58665,43.640946)" />
  <polygon
     class="st0"
     points=""
     id="polygon10"
     style="fill:#7a4a65"
     transform="matrix(0.74799973,0,0,0.75184363,135.58665,43.640946)" />
  <polygon
     class="st0"
     points=""
     id="polygon11"
     style="fill:#7a4a65"
     transform="matrix(0.74799973,0,0,0.75184363,135.58665,43.640946)" />
  <text
     xml:space="preserve"
     style="text-align:start;writing-mode:lr-tb;direction:ltr;text-anchor:start;fill:#fab800;fill-opacity:1;stroke:none;stroke-width:1.002;stroke-dasharray:none;stroke-opacity:1"
     x="52.134251"
     y="122.28055"
     id="text1"><tspan
       sodipodi:role="line"
       id="tspan1"
       x="52.134251"
       y="122.28055" /></text>
  <path
     fill-rule="evenodd"
     clip-rule="evenodd"
     d="m 98.418222,23.515844 v -0.0062 c 0.0018,-0.239102 -0.03475,-1.069085 -0.612669,-1.660781 -0.403156,-0.412993 -0.975421,-0.623024 -1.705115,-0.623024 h -2.252472 c -1.531991,0 -1.531991,-0.351658 -1.531991,-1.294142 0,-0.01986 0.04953,-1.927314 1.554976,-2.473124 0.479226,-0.174285 1.011447,-0.261656 1.581155,-0.262536 h 0.02517 2.653534 0.03995 c 0.939662,0 1.785197,-0.637583 2.05335,-1.55138 0.0593,-0.202531 0.0912,-0.411681 0.0912,-0.624352 0,-1.199281 -0.963183,-2.173969 -2.14456,-2.173969 -0.04515,0 -0.09003,8.82e-4 -0.145209,0.0053 l 0.0082,-0.0013 H 95.75983 95.576312 c -0.357002,0.0035 -0.740912,0.02736 -1.143156,0.07016 -1.206274,0.128399 -2.293882,0.409026 -3.235734,0.832612 -3.973728,1.788331 -4.153324,5.432049 -4.155969,5.469116 l -0.0099,0.05735 c -0.191818,1.262824 -0.519268,1.947182 -1.698544,1.947182 -0.584849,0 -1.055866,0.190172 -1.399825,0.566099 -0.609659,0.664508 -0.588772,1.681152 -0.587495,1.690779 v -0.0096 c 0,2.06446 1.934235,2.452818 1.959501,2.456302 0.909289,0.07903 1.594562,0.827324 1.595839,1.735418 v -9.17e-4 c 0,0.04859 -0.01259,4.708889 -0.01259,7.154189 0,0.865738 0.228759,1.536838 0.680166,1.991298 0.588771,0.595281 1.337619,0.597848 1.370181,0.597848 h 1.0358 c 0.06266,0 0.625347,-0.0093 1.159757,-0.379832 0.436174,-0.303187 0.956263,-0.927989 0.956263,-2.187219 v -7.226983 c 0.02828,-0.946967 0.796186,-1.687286 1.748527,-1.687286 h -0.0052 0.003 0.0044 0.01085 l 0.01085,-0.0022 -0.02171,0.0022 -0.01086,-0.0014 c 0.0078,0.0014 0.02171,0.0022 2.220366,0.0014 0.718748,0 1.29147,-0.213615 1.701558,-0.633237 0.6414,-0.656065 0.666666,-1.608257 0.665754,-1.793177 0,-0.0022 0,4.59e-4 -9.13e-4,0.0049 m 19.007862,10.018247 h -0.0821 v 0.630853 h 0.0721 c 0.24445,0 0.44694,-0.09883 0.44694,-0.343435 0,-0.225442 -0.15597,-0.287418 -0.43691,-0.287418 z m 0.56916,1.976996 c -0.32562,-0.577586 -0.50713,-0.939174 -0.59743,-0.939174 h -0.0547 v 0.939174 h -0.52903 v -2.38314 h 0.79354 c 0.5263,0 0.80814,0.279259 0.80814,0.650014 0,0.387166 -0.32836,0.577953 -0.53815,0.650839 v 0.0065 c 0.11766,0 0.44694,0.553291 0.72878,1.075777 z m -0.38947,-2.99694 c -1.01154,0 -1.73941,0.802203 -1.73941,1.834708 0,1.034155 0.72787,1.836358 1.73941,1.836358 1.0088,0 1.73667,-0.802203 1.73667,-1.836358 0,-1.032505 -0.72787,-1.834708 -1.73667,-1.834708 z m 0,4.222249 c -1.40557,0 -2.35691,-1.02077 -2.35691,-2.387541 0,-1.364663 0.96046,-2.388366 2.36603,-2.388366 1.36453,0 2.3861,1.023703 2.3861,2.388366 0,1.366771 -1.04164,2.387541 -2.39522,2.387541 z M 12.233858,29.60434 c 0.02705,0.0093 0.969543,0.395967 1.967883,0.803395 l 3.054779,1.249971 c 0.721302,0.290077 1.099101,1.062301 0.897158,1.833699 -0.253568,0.97658 -1.412504,1.900443 -3.902638,1.565535 -0.991352,-0.132753 -3.297821,-0.628102 -3.320515,-0.632045 l 0.01832,0.0039 c -0.06021,-0.02155 -1.4460152,-0.516895 -2.3007959,-0.05932 -0.3071827,0.164842 -0.5074626,0.428973 -0.5973471,0.788452 -0.3233253,1.30452 1.0048808,1.762005 1.0184075,1.765948 0.4751673,0.168783 0.9992145,0.288793 1.4202755,0.384599 l 0.357796,0.08352 c 0.03011,0.0066 3.052171,0.733076 5.448092,0.697046 1.575189,-0.0242 5.40316,-0.377998 6.901495,-3.145096 0.21909,-0.404403 0.527568,-1.834158 0.373967,-2.727676 -0.181511,-1.053499 -0.494823,-2.095997 -2.290325,-3.266389 -0.456423,-0.297594 -1.87668,-0.76874 -3.128925,-1.185794 -0.666301,-0.2215 -1.29548,-0.431173 -1.625392,-0.56521 -2.204367,-0.897551 -2.600564,-1.706172 -2.638088,-2.109291 -0.02443,-0.243411 0.05062,-0.780567 0.475176,-1.252996 0.526656,-0.585471 1.405873,-0.88169 2.614957,-0.88169 1.814747,0 2.521638,0.212331 3.269482,0.436857 0.140466,0.04401 0.2875,0.08746 0.439823,0.128352 0.566789,0.15604 1.015368,0.134037 1.335157,-0.06592 0.379623,-0.235985 0.459889,-0.648272 0.487891,-0.783592 0.04752,-0.247446 0.105076,-1.094417 -1.213024,-1.624907 -0.112191,-0.04483 -2.816161,-1.108453 -7.069553,-0.514676 -0.599525,0.08395 -1.771522,0.315574 -2.874143,0.931767 -1.6096492,0.898394 -2.4417371,2.286344 -2.4125038,4.014061 0.021818,1.240253 0.6012676,2.347018 1.6742178,3.204047 0.804606,0.641671 1.590449,0.914145 1.625356,0.923405 m 26.643057,3.78145 c -2.472292,0 -4.483053,-2.021553 -4.483053,-4.506459 0,-2.485455 2.010761,-4.50655 4.483053,-4.50655 2.472749,0 4.483145,2.021095 4.483145,4.50655 0,2.484906 -2.010396,4.506459 -4.483145,4.506459 z m -9.1e-5,-17.128127 c -6.935006,0 -12.556655,5.650446 -12.556655,12.621852 0,6.970919 5.621649,12.622282 12.556655,12.622282 6.935918,0 12.558388,-5.651363 12.558388,-12.622282 0,-6.971406 -5.62247,-12.621852 -12.558388,-12.621852 z m 16.632449,6.810598 V 35.31919 c 0,0.0013 -0.0014,0.0022 -0.0014,0.0039 v 0.01146 9.17e-4 c 0,1.106949 0.863592,2.010001 1.950105,2.068585 0.03731,0.0027 0.07361,0.0039 0.112191,0.0039 0.03685,0 0.07361,-0.0013 0.110457,-0.0039 1.079034,-0.05813 1.938248,-0.951001 1.94965,-2.048324 v -0.02026 -0.02246 -5.275107 c 0,-3.080003 0.598439,-6.837157 4.257761,-6.837157 1.891821,0 1.776985,2.409635 1.776985,3.070376 v 9.127793 h 0.0031 c 0.03284,1.11575 0.941943,2.009084 2.058738,2.009084 1.13741,0 2.060563,-0.928081 2.060563,-2.072527 0,-0.0419 -9.12e-4,-0.0837 -0.0035,-0.124227 v -5.045998 c 0,0 -0.564326,-7.061774 4.294519,-6.960926 1.761298,0.03612 1.74415,2.058958 1.74415,3.06946 v 9.021168 h 9.12e-4 c 0,0.01366 -9.12e-4,0.0264 -9.12e-4,0.04052 0,1.144446 0.922697,2.072527 2.061475,2.072527 1.137318,0 2.060016,-0.928081 2.060016,-2.072527 0,-0.04758 -0.0017,-0.09388 -0.0057,-0.140546 V 24.283209 c 0,-2.217932 -1.937428,-3.246549 -3.69079,-3.246549 -3.305693,0 -3.646186,1.122406 -5.527883,1.122406 -1.772699,0 -1.935238,-1.125487 -4.813787,-1.125487 -2.513064,0 -3.016462,1.125946 -4.868059,1.125946 -1.451451,0 -2.239246,-1.121545 -3.467776,-1.121545 -2.167007,0 -2.060928,2.030281 -2.060928,2.030281 z m 55.271094,4.574027 c -0.46062,0.924046 -1.0161,1.454509 -1.52415,1.454509 -0.59196,0 -0.96867,-0.07215 -1.82059,-1.530971 l -3.09663,-5.463877 c -0.22894,-0.441927 -0.68135,-0.739136 -1.287,-0.933966 -0.60838,-0.196132 -1.23592,-0.176687 -1.67738,0.05227 -0.26087,0.133917 -0.43873,0.333936 -0.51444,0.575413 -0.0693,0.215999 -0.052,0.451875 0.0483,0.686852 l 9.1e-4,0.0017 c 0.0237,0.054 5.51192,10.942423 5.83663,11.635802 0.15415,0.328307 0.23351,0.68687 0.23351,1.067435 0,1.992765 -1.10184,2.848968 -1.63908,3.292243 -1.34993,1.117951 -3.26173,1.042773 -3.28088,1.042315 l -0.003,-8.26e-4 h -0.003 -1.04347 c -0.65307,0 -1.381847,0.544307 -1.381847,1.32359 0,0.832458 0.554557,1.329733 1.483097,1.329733 h 0.95042 l -0.0109,-9.17e-4 c 0.052,0.0044 1.26875,0.101949 2.82847,-0.401743 1.44024,-0.465645 3.44416,-1.555175 4.82236,-4.105632 0.32928,-0.606558 3.17508,-7.04023 5.25197,-11.73775 l 1.55425,-3.507784 c 0.008,-0.02246 0.14047,-0.513603 0.0684,-0.686402 -0.0894,-0.21599 -0.23533,-0.406071 -0.4743,-0.53005 -0.40316,-0.209518 -0.9632,-0.181876 -1.53236,-0.04796 -0.51717,0.122255 -1.05532,0.66614 -1.21767,0.950863 z"
     id="path1"
     style="stroke-width:0.914457"
     sodipodi:nodetypes="cccsssccccscssccccccccsccccccscsscscccccccccccsccccsssccsccccssccccssssssssssccccccccccccccccccccsccccccccccsssssssssscsscscsccccsssccsscccsccssscsssssscccsccccccccsccccsssccccccccccc" />
  <g
     id="g5"
     transform="translate(-0.01978966,3.0911867)">
    <polyline
       points="64.02,59.47 5.15,59.47 5.15,0.6 64.02,0.6 64.02,59.47  "
       id="polyline1"
       style="fill:#ffd45b;fill-opacity:1"
       transform="matrix(0.74799973,0,0,0.75184363,38.150219,40.408458)" />
    <g
       id="g4"
       transform="translate(-0.47871984)">
      <path
         class="st1"
         d="m 54.120013,57.512901 -0.41888,-1.699167 c -0.30668,-1.225505 -0.560999,-1.917201 -1.039719,-2.353271 l -1.47356,0.09022 v 3.969734 H 49.018655 V 47.332938 h 2.924679 c 2.101879,0 4.458078,0.187961 4.458078,2.939708 0,1.616464 -0.777919,2.353271 -1.877479,2.751748 0.77792,0.496217 1.0846,1.466095 1.31648,2.21042 l 0.710599,2.285605 h -2.430999 m -2.288879,-8.533425 h -0.65076 v 3.052485 c 1.40624,-0.09022 3.036879,0.07518 3.036879,-1.646538 0,-1.293171 -0.79288,-1.405947 -2.386119,-1.405947 z"
         id="path13"
         style="fill:#ffffff;stroke-width:0.749919" />
      <polyline
         class="st1"
         points="40.93,11.62 37.45,11.62 37.45,22.75 34.55,22.75 34.55,11.62 30.77,11.62 30.77,9.21 41.22,9.21    40.93,11.62  "
         id="polyline13"
         style="fill:#ffffff"
         transform="matrix(0.74799973,0,0,0.75184363,38.150219,40.408458)" />
      <path
         class="st1"
         d="m 76.305685,57.655751 c -1.608199,0 -2.879799,-0.533809 -2.879799,-0.533809 v -1.789388 c 0,0 1.92236,0.586438 2.819959,0.586438 0.80784,0 1.56332,-0.202998 1.56332,-1.10521 0,-0.917249 -0.68068,-1.090173 -1.28656,-1.323245 l -0.77044,-0.2857 c -0.710599,-0.278183 -2.430999,-0.759362 -2.430999,-3.060004 0,-2.413418 2.12432,-2.954745 3.732519,-2.954745 1.623159,0 2.535719,0.556364 2.535719,0.556364 v 1.714203 c 0,0 -1.376319,-0.563882 -2.475879,-0.563882 -0.98736,0 -1.653079,0.248108 -1.653079,1.135283 0,0.872139 0.665719,1.007471 1.234199,1.240542 l 0.69564,0.278183 c 0.957439,0.38344 2.588079,0.842064 2.588079,3.142706 0,2.586342 -1.922359,2.962264 -3.672679,2.962264"
         id="path14"
         style="fill:#ffffff;stroke-width:0.749919" />
    </g>
    <g
       id="g3"
       transform="translate(-97.473825,-3.0015961)">
      <polygon
         class="st0"
         points="40.51,28.5 41.7,29.69 39.32,27.31 "
         id="polygon1"
         style="fill:#7a4a65"
         transform="matrix(0.74799973,0,0,0.75184363,135.58665,43.640946)" />
      <path
         class="st0"
         d="m 158.68488,67.617239 c 0.8976,0.368404 1.85504,0.548846 2.81248,0.548846 0.95744,0 1.9074,-0.180442 2.81248,-0.548846 0.8976,-0.368403 1.74284,-0.917249 2.47588,-1.646537 l -1.78024,-1.789388 c -0.4862,0.488698 -1.03972,0.849583 -1.63812,1.090173 -0.5984,0.24059 -1.22672,0.360885 -1.86252,0.360885 -0.6358,0 -1.2716,-0.120295 -1.86252,-0.360885 -0.5984,-0.24059 -1.15192,-0.608993 -1.63812,-1.090173 v 0 0 c 0,0 0,0 0,0 l -1.78024,1.789388 c 0,0 0,0 0,0 0.71808,0.729288 1.56332,1.278134 2.46092,1.646537 z"
         id="path2"
         style="fill:#7a4a65;stroke-width:0.749919" />
      <polygon
         class="st0"
         points="40.51,28.5 39.32,27.31 41.7,29.69 "
         id="polygon3"
         style="fill:#7a4a65"
         transform="matrix(0.74799973,0,0,0.75184363,135.58665,43.640946)" />
      <polygon
         class="st0"
         points="45.63,33.62 44.68,32.67 46.58,34.57 "
         id="polygon5"
         style="fill:#7a4a65"
         transform="matrix(0.74799973,0,0,0.75184363,135.58665,43.640946)" />
      <path
         class="st0"
         d="m 161.49736,73.353806 c 3.23136,0 6.47019,-1.240542 8.93111,-3.721626 l -1.42868,-1.436021 c -2.07943,2.082607 -4.78719,3.127669 -7.50991,3.127669 -2.72272,0 -5.43048,-1.037544 -7.50992,-3.127669 0,0 0,0 0,0 l -1.42868,1.436021 c 0,0 0,0 0,0 2.48336,2.481084 5.7222,3.721626 8.94608,3.721626 z"
         id="path5"
         style="fill:#7a4a65;stroke-width:0.749919" />
      <path
         class="st0"
         d="m 145.0264,77.210764 c 2.22156,2.232976 4.81712,3.962216 7.71188,5.142611 v 0 c 0,0 0,0 0,0 v 0 0 c 2.79004,1.135283 5.73716,1.714203 8.75908,1.714203 3.01444,0 5.96903,-0.57892 8.75907,-1.714203 2.89476,-1.180395 5.49032,-2.909635 7.7044,-5.142611 0,0 0,0 0,0 l -0.59092,-0.593956 c 0,0 0,0 0,0 -2.13928,2.150272 -4.6376,3.819365 -7.42764,4.954649 -2.69279,1.097692 -5.53519,1.654056 -8.44491,1.654056 -2.9172,0 -5.75212,-0.556364 -8.44492,-1.654056 v 0 c -2.79004,-1.135284 -5.28836,-2.804377 -7.42764,-4.954649 v 0 0 c 0,0 0,0 0,0 v 0 c 0,0 0,0 0,0 z"
         id="path6"
         style="fill:#7a4a65;stroke-width:0.749919" />
      <path
         class="st0"
         d="m 161.49736,78.789636 c 4.61516,0 9.23779,-1.774351 12.76087,-5.308016 l -1.0098,-1.014989 c -3.24632,3.263001 -7.49495,4.886983 -11.75107,4.894502 -4.25612,0 -8.50476,-1.631501 -11.75108,-4.894502 0,0 0,0 0,0 l -1.0098,1.014989 c 0,0 0,0 0,0 3.52308,3.533665 8.14572,5.308016 12.76088,5.308016 z"
         id="path11"
         style="fill:#7a4a65;stroke-width:0.749919" />
      <polygon
         class="st0"
         points="51.02,39.01 50.35,38.34 51.7,39.69 "
         id="polygon12"
         style="fill:#7a4a65"
         transform="matrix(0.74799973,0,0,0.75184363,135.58665,43.640946)" />
      <polygon
         class="st0"
         points="51.7,39.69 50.35,38.34 "
         id="polygon13"
         style="fill:#7a4a65"
         transform="matrix(0.74799973,0,0,0.75184363,135.58665,43.640946)" />
    </g>
  </g>
  <path
     d="M 30.671772,115.15366 V 91.213672 h 6.471174 v 18.709408 h 9.220585 v 5.23058 z m 34.200012,0 -1.173529,-4.49294 h -7.778821 l -1.207058,4.49294 h -7.108233 l 7.81235,-24.040576 h 8.617056 l 7.912938,24.040576 z m -3.554116,-13.71352 q -0.167647,-0.63706 -0.469412,-1.810589 -0.301765,-1.207058 -0.603529,-2.481175 -0.301765,-1.274117 -0.469412,-2.078823 -0.134117,0.804706 -0.435882,2.011764 -0.268235,1.207058 -0.57,2.380587 -0.268235,1.173526 -0.469411,1.978236 l -1.039412,3.92294 h 5.096469 z m 36.010571,13.71352 H 88.845301 L 80.094128,98.288375 H 79.96001 q 0.06706,0.771177 0.134118,1.877645 0.06706,1.07294 0.100588,2.17941 0.06706,1.10647 0.06706,2.01177 v 10.79646 H 74.528247 V 91.213672 h 8.449409 L 91.6953,107.84425 h 0.100588 q -0.03353,-0.77117 -0.100588,-1.81058 -0.06706,-1.03941 -0.100588,-2.11236 -0.03353,-1.07294 -0.03353,-1.87764 V 91.213672 h 5.767056 z"
     id="text2"
     style="font-weight:900;font-size:33.5294px;font-family:'Noto Sans';-inkscape-font-specification:'Noto Sans, Heavy';fill:#836000;stroke-width:2.79972"
     aria-label="LAN" />
</svg>
